<svg width="112" height="16" viewBox="0 0 112 16" fill="none" xmlns="http://www.w3.org/2000/svg">
<path d="M10.8261 8.54326C10.413 9.21723 9.52176 9.43452 8.84778 8.99965C8.15199 8.58689 7.95652 7.69533 8.36957 7.02165C8.6305 6.58678 8.80444 6.08675 8.80444 5.63036C8.80444 5.06517 8.67383 3.28235 6.93465 3.28235H2.89138V14.1736C2.89138 14.9563 2.23922 15.6085 1.43493 15.6085C0.652162 15.6085 0 14.9563 0 14.1736V1.8259C0 1.04343 0.652162 0.391273 1.43493 0.391273H6.93464C10.1957 0.391273 11.6737 3.10841 11.6737 5.63036C11.6737 6.6086 11.3694 7.65199 10.8261 8.54326Z" fill="#DEECA3"/>
<path d="M5.76094 10.8258C4.97817 10.8258 4.32601 10.1737 4.32601 9.36936C4.32601 8.58689 4.97817 7.93473 5.76094 7.93473C6.56523 7.93473 7.19557 8.58689 7.19557 9.36936C7.19557 10.1737 6.56523 10.8258 5.76094 10.8258Z" fill="white"/>
<path d="M15.7183 15.6085C14.9358 15.6085 14.2836 14.9563 14.2836 14.1736V1.8259C14.2836 1.04343 14.9358 0.391273 15.7183 0.391273H18.7184C19.5009 0.391273 20.1531 1.04343 20.1531 1.8259C20.1531 2.63019 19.5009 3.28235 18.7184 3.28235H17.175V6.6086H22.2183C23.0226 6.6086 23.653 7.1956 23.653 7.99989C23.653 8.78236 23.0226 9.36936 22.2183 9.36936H17.175V12.7171H23.1096C23.9139 12.7171 24.5442 13.3693 24.5442 14.1736C24.5442 14.9563 23.9139 15.6085 23.1096 15.6085H15.7183Z" fill="#DEECA3"/>
<path d="M23.0444 3.28235C22.2401 3.28235 21.588 2.63019 21.588 1.8259C21.588 1.04343 22.2401 0.391273 23.0444 0.391273C23.8269 0.391273 24.4791 1.04343 24.4791 1.8259C24.4791 2.63019 23.8269 3.28235 23.0444 3.28235Z" fill="white"/>
<path d="M29.219 15.6085C28.4365 15.6085 27.7844 14.9563 27.7844 14.1736V1.8259C27.7844 1.04343 28.4365 0.391273 29.219 0.391273H32.2192C33.0016 0.391273 33.6538 1.04343 33.6538 1.8259C33.6538 2.63019 33.0016 3.28235 32.2192 3.28235H30.6758V6.6086H35.7191C36.5234 6.6086 37.1537 7.1956 37.1537 7.99989C37.1537 8.78236 36.5234 9.36936 35.7191 9.36936H30.6757V12.7171H36.6103C37.4146 12.7171 38.045 13.3693 38.045 14.1736C38.045 14.9563 37.4146 15.6085 36.6103 15.6085H29.219Z" fill="#DEECA3"/>
<path d="M36.5452 3.28235C35.7409 3.28235 35.0887 2.63019 35.0887 1.8259C35.0887 1.04343 35.7409 0.391273 36.5452 0.391273C37.3277 0.391273 37.9798 1.04343 37.9798 1.8259C37.9798 2.63019 37.3277 3.28235 36.5452 3.28235Z" fill="white"/>
<path d="M52.5242 5.23883C52.5242 2.28259 50.5023 0.391273 47.3937 0.391273H42.7201C41.9373 0.391273 41.2851 1.04343 41.2851 1.8259V14.1736C41.2851 14.9563 41.9373 15.6085 42.7201 15.6085C43.5243 15.6085 44.1765 14.9563 44.1765 14.1736V10.2606H47.3285L47.9807 11.304C48.3937 11.978 49.285 12.1738 49.959 11.7389C51.2851 10.891 50.2199 9.49968 50.2199 9.49968C51.72 8.65205 52.5242 7.10863 52.5242 5.23883ZM47.3285 7.76079H44.1765V3.19538H47.3937C48.8937 3.19538 49.6329 4.08694 49.6329 5.41278C49.6329 6.63012 49.0459 7.76079 47.3285 7.76079Z" fill="#DEECA3"/>
<path d="M51.546 15.5867C50.7633 15.5867 50.1111 14.9345 50.1111 14.1521C50.1111 13.3475 50.7633 12.6953 51.546 12.6953C52.3503 12.6953 52.9807 13.3475 52.9807 14.1521C52.9807 14.9345 52.3503 15.5867 51.546 15.5867Z" fill="white"/>
<path d="M66.9705 8.54326C66.5575 9.21723 65.6662 9.43452 64.9922 8.99965C64.2964 8.58689 64.101 7.69533 64.514 7.02165C64.7749 6.58678 64.9489 6.08675 64.9489 5.63036C64.9489 5.06517 64.8183 3.28235 63.0791 3.28235H59.0358V14.1736C59.0358 14.9563 58.3837 15.6085 57.5794 15.6085C56.7966 15.6085 56.1444 14.9563 56.1444 14.1736V1.8259C56.1444 1.04343 56.7966 0.391273 57.5794 0.391273H63.0791C66.3402 0.391273 67.8181 3.10841 67.8181 5.63036C67.8181 6.6086 67.5139 7.65199 66.9705 8.54326Z" fill="#DEECA3"/>
<path d="M61.9054 10.8258C61.1226 10.8258 60.4704 10.1737 60.4704 9.36936C60.4704 8.58689 61.1226 7.93473 61.9054 7.93473C62.7097 7.93473 63.34 8.58689 63.34 9.36936C63.34 10.1737 62.7097 10.8258 61.9054 10.8258Z" fill="white"/>
<path d="M77.4314 16C73.0184 16 69.4312 12.4131 69.4312 7.97833C69.4312 5.50001 70.5619 3.23927 72.5184 1.69585C73.1269 1.21764 74.04 1.32614 74.54 1.95677C75.0182 2.5653 74.9094 3.47838 74.2791 3.97841C73.0399 4.95664 72.3226 6.39128 72.3226 7.97833C72.3226 10.8043 74.6052 13.1086 77.4314 13.1086C80.2573 13.1086 82.5617 10.8043 82.5617 7.97833C82.5617 6.39127 81.8444 4.95664 80.5834 3.97841C79.953 3.47838 79.8442 2.5653 80.3443 1.95677C80.8225 1.32614 81.7356 1.21764 82.3659 1.69585C84.3224 3.23927 85.4531 5.50001 85.4531 7.97833C85.453 12.4131 81.8444 16 77.4314 16Z" fill="#DEECA3"/>
<path d="M77.4314 0C78.2357 0 78.8878 0.652161 78.8878 1.45675C78.8878 2.23922 78.2357 2.89138 77.4314 2.89138C76.6486 2.89138 75.9964 2.23922 75.9964 1.45675C75.9964 0.652161 76.6486 0 77.4314 0Z" fill="white"/>
<path d="M90.3949 12.5434C90.3949 13.3477 89.7427 13.9784 88.9385 13.9784C88.1557 13.9784 87.5035 13.3477 87.5035 12.5434C87.5035 11.7392 88.1557 11.1088 88.9385 11.1088C89.7427 11.1088 90.3949 11.7392 90.3949 12.5434Z" fill="white"/>
<path d="M93.9603 16C92.8296 16 91.308 15.5651 91.308 14.4566C91.308 13.5435 91.9165 13.0435 92.6341 13.0871C93.3733 13.1304 94.1775 13.3914 94.96 13.0217C95.5688 12.7392 96.0252 12.1955 96.0252 11.4349C96.0252 10.5218 95.0037 9.93481 92.7863 9.13052C90.7861 8.4132 87.7863 7.52194 87.7645 4.54359C87.7645 3.41322 88.1993 2.34801 89.0036 1.5219C89.6994 0.826109 90.9819 0 93.2211 0C95.7643 0 97.4602 1.34795 98.0253 2.15224C98.4166 2.67409 98.3514 3.36959 97.9602 3.86961C97.4383 4.52177 96.6559 4.45662 96.1122 3.97841C95.721 3.63051 94.8079 2.71743 93.1341 2.71743C91.6774 2.71743 90.6558 3.47838 90.6558 4.54359C90.6558 5.23909 91.4168 5.82609 93.6775 6.69583C96.4601 7.76105 98.9166 8.93476 98.9166 11.6088C98.9166 13.7608 97.4165 16 93.9603 16Z" fill="#DEECA3"/>
<path d="M107.209 14.1736C107.209 14.9563 106.579 15.6085 105.774 15.6085C104.97 15.6085 104.34 14.9563 104.34 14.1736V3.28235H101.187C100.405 3.28235 99.7527 2.63019 99.7527 1.8259C99.7527 1.04343 100.405 0.391273 101.187 0.391273H105.774C106.644 0.391273 107.209 1.04343 107.209 1.8259V14.1736Z" fill="#DEECA3"/>
<path d="M111.796 1.8259C111.796 2.63019 111.144 3.28235 110.361 3.28235C109.557 3.28235 108.905 2.63019 108.905 1.8259C108.905 1.04343 109.557 0.391273 110.361 0.391273C111.144 0.391273 111.796 1.04343 111.796 1.8259Z" fill="white"/>
</svg>
