<svg width="341" height="20" viewBox="0 0 341 20" fill="none" xmlns="http://www.w3.org/2000/svg">
<path fill-rule="evenodd" clip-rule="evenodd" d="M340.867 6.22533C339.475 3.9178 327.519 2.94622 291.587 2.13656C258.06 1.36739 219.028 -0.85918 150.835 0.355307C98.7086 1.28641 33.8042 5.01084 33.8042 7.07547C33.8042 8.57334 36.3345 8.61382 60.4997 7.27788C82.8304 6.0634 94.2804 5.78002 108.261 5.45615C52.2127 8.61382 40.2566 10.6785 10.3981 12.6621C-8.32679 13.9171 2.61714 17.5201 9.44918 17.1557C9.51244 17.1557 96.621 12.6216 104.845 12.8645C105.604 12.905 97.3169 13.6337 86.3729 14.4838C55.8185 16.9128 61.7017 20.9607 84.6017 19.0985C161.652 12.8236 234.148 10.8805 290.006 13.5928C307.655 14.4429 309.616 14.4429 309.616 13.3904C309.616 11.5282 304.809 10.1117 297.281 9.82831C285.514 9.34252 240.22 7.96569 219.724 7.56086C218.143 7.52038 218.902 6.75161 220.294 6.67064C228.644 6.14436 294.94 6.54879 321.003 7.11555C340.171 7.52038 341.562 7.48029 340.867 6.22533Z" fill="#DEECA3"/>
</svg>
